<?xml version="1.0" encoding="utf-8"?>
<!-- Generator: Adobe Illustrator 26.5.0, SVG Export Plug-In . SVG Version: 6.00 Build 0)  -->
<svg version="1.1" id="Layer_1" xmlns="http://www.w3.org/2000/svg" xmlns:xlink="http://www.w3.org/1999/xlink" x="0px" y="0px"
	 viewBox="0 0 792 612" style="enable-background:new 0 0 792 612;" xml:space="preserve">
<style type="text/css">
	.st0{fill:none;stroke:#000000;stroke-miterlimit:10;}
	.st1{font-family:'MyriadPro-Regular';}
	.st2{font-size:12px;}
	.st3{fill:none;stroke:#000000;stroke-width:0.7271;stroke-miterlimit:10;}
	.st4{fill:none;stroke:#000000;stroke-width:0.75;stroke-miterlimit:10;}
	.st5{font-size:6px;}
	.st6{fill:none;stroke:#00A651;stroke-width:2;stroke-miterlimit:10;}
</style>
<line class="st0" x1="400.2" y1="307.9" x2="400.2" y2="323.4"/>
<polyline class="st0" points="448.7,202.3 448.7,203.9 451.9,203.9 451.9,202.3 "/>
<line class="st0" x1="448.7" y1="214.1" x2="448.7" y2="206"/>
<rect x="448.7" y="218.5" class="st0" width="3.2" height="6.9"/>
<polyline class="st0" points="410.7,253.9 410.7,250.4 417.7,250.4 425.7,250.4 425.7,243.3 425.7,231.8 448.7,231.8 448.7,227.5 
	"/>
<polyline class="st0" points="400.2,301.5 400.2,289.4 412.6,289.4 412.6,264.5 399.9,264.5 400,250.4 406.2,250.4 406.2,259.5 
	410.7,259.5 410.7,256.3 "/>
<polyline class="st0" points="390.7,250.4 390.7,264.6 387,268.6 "/>
<line class="st0" x1="390.7" y1="227.5" x2="390.7" y2="243.6"/>
<polyline class="st0" points="400.2,227.5 400,243.3 406.4,243.3 406.4,227.5 406.2,216.6 406.2,209.1 414.2,209.1 421.7,209.1 
	421.7,202.3 429.8,202.3 483.6,202.3 "/>
<line class="st0" x1="390.7" y1="307.9" x2="390.7" y2="323.4"/>
<polyline class="st0" points="391.2,264.5 378.5,264.5 378.5,277 378.5,289.4 390.7,289.4 390.7,301.5 "/>
<text transform="matrix(1 0 0 1 382.6958 280.7827)" class="st1 st2">Start</text>
<line class="st0" x1="406.2" y1="264.5" x2="402.5" y2="268.5"/>
<polyline class="st0" points="408.8,268.6 412.5,264.6 483.6,264.6 "/>
<line class="st0" x1="412.7" y1="270.3" x2="409" y2="274.3"/>
<line class="st0" x1="406.4" y1="285.5" x2="402.7" y2="289.5"/>
<line class="st0" x1="412.7" y1="278.8" x2="409" y2="282.8"/>
<line class="st0" x1="382.2" y1="273.5" x2="378.5" y2="277.5"/>
<line class="st0" x1="385.3" y1="264.5" x2="382.6" y2="267.5"/>
<line class="st0" x1="381.4" y1="268.8" x2="378.4" y2="272"/>
<line class="st0" x1="382.1" y1="280.3" x2="378.4" y2="284.3"/>
<line class="st0" x1="389.1" y1="285.4" x2="385.3" y2="289.4"/>
<line class="st0" x1="383.5" y1="285.3" x2="379.8" y2="289.3"/>
<line class="st0" x1="412.5" y1="285.5" x2="408.8" y2="289.5"/>
<rect x="308.4" y="189.3" class="st3" width="175.3" height="176.4"/>
<polyline class="st0" points="436.1,222.3 436.1,226.4 428.5,226.4 428.5,216.6 425.7,216.6 425.7,202.3 "/>
<polyline class="st0" points="417.7,227.5 417.7,231.3 421.7,231.3 421.7,226.5 425.7,226.5 425.7,229 428.5,229 "/>
<polyline class="st0" points="410.8,238.5 410.8,227.5 414.3,227.5 414.2,216.6 417.7,216.6 421.7,216.6 421.7,220.4 417.7,220.4 
	417.7,224 "/>
<polyline class="st0" points="414.2,235.4 417.7,235.4 417.7,243.3 410.8,243.3 410.8,240.7 "/>
<polyline class="st0" points="410.7,253.4 425.7,253.4 425.7,250.4 "/>
<line class="st0" x1="415.5" y1="259.5" x2="419.7" y2="259.5"/>
<line class="st0" x1="410.7" y1="259.5" x2="412.5" y2="259.5"/>
<line class="st0" x1="451.9" y1="206" x2="451.9" y2="214.1"/>
<polyline class="st0" points="448.7,264.6 448.7,262 451.9,262 451.9,264.5 "/>
<polyline class="st0" points="451.9,246.4 451.9,231.7 451.9,227.5 "/>
<line class="st0" x1="429.7" y1="253.4" x2="425.7" y2="253.4"/>
<polyline class="st0" points="433.6,253.4 432.6,253.4 432.6,264.6 "/>
<polyline class="st0" points="451.9,249.7 451.9,259.5 448.7,259.5 448.7,235.1 443.8,235.1 443.8,253.4 435.2,253.4 "/>
<line class="st0" x1="456" y1="262" x2="456" y2="264.5"/>
<line class="st0" x1="456" y1="253.9" x2="456" y2="259.5"/>
<line class="st0" x1="456" y1="227.5" x2="456" y2="251.2"/>
<line class="st0" x1="456" y1="225.5" x2="456" y2="218.5"/>
<rect x="456" y="206" class="st0" width="4.8" height="8.1"/>
<line class="st0" x1="456" y1="202.3" x2="456" y2="203.9"/>
<line class="st0" x1="460.8" y1="262" x2="460.8" y2="264.5"/>
<line class="st0" x1="460.8" y1="253.9" x2="460.8" y2="259.5"/>
<line class="st0" x1="460.8" y1="227.5" x2="460.8" y2="251.2"/>
<line class="st0" x1="460.8" y1="218.5" x2="460.8" y2="225.5"/>
<line class="st0" x1="460.8" y1="202.3" x2="460.8" y2="203.9"/>
<line class="st0" x1="466.2" y1="246.4" x2="466.2" y2="264.5"/>
<line class="st0" x1="466.2" y1="227.5" x2="466.2" y2="244.4"/>
<line class="st0" x1="466.2" y1="218.5" x2="466.2" y2="225.5"/>
<line class="st0" x1="466.2" y1="214.1" x2="466.2" y2="206"/>
<line class="st0" x1="466.2" y1="202.3" x2="466.2" y2="203.9"/>
<line class="st0" x1="473.3" y1="202.3" x2="473.3" y2="264.5"/>
<line class="st0" x1="460.8" y1="242.7" x2="466.2" y2="242.7"/>
<polyline class="st0" points="444.6,220.6 444.6,207.6 444.6,202.3 "/>
<line class="st0" x1="444.6" y1="231.8" x2="444.6" y2="223.3"/>
<rect x="428.5" y="235.1" class="st0" width="1.2" height="1.9"/>
<rect x="432.4" y="235.2" class="st0" width="1.2" height="1.9"/>
<rect x="438.2" y="239.8" class="st0" width="1.2" height="1.9"/>
<rect x="436.3" y="236.1" class="st0" width="1.2" height="1.9"/>
<rect x="429.7" y="249.5" class="st0" width="1.2" height="1.9"/>
<rect x="438.2" y="243.6" class="st0" width="1.2" height="1.9"/>
<polyline class="st0" points="438.2,264.5 438.2,262 441.3,262 441.3,257.9 446.2,257.9 446.2,253.4 "/>
<line class="st0" x1="438.2" y1="253.4" x2="438.2" y2="257.9"/>
<rect x="424.5" y="220.2" class="st4" width="1.6" height="3.2"/>
<polyline class="st0" points="406.4,219.2 409,219.2 409,216 410.7,216 410.7,214.1 412.5,214.1 412.5,211.5 414.3,211.5 
	414.2,209.1 "/>
<line class="st0" x1="438.8" y1="216.6" x2="444.6" y2="216.6"/>
<line class="st0" x1="428.5" y1="216.6" x2="436.1" y2="216.6"/>
<text transform="matrix(0 1 -1 0 477.1064 206.0002)" class="st1 st5">Anomaly Spawn Area </text>
<image style="overflow:visible;" width="785" height="548" xlink:href="FB3088AF.jpg"  transform="matrix(1 0 0 1 748.5217 -392.6848)">
</image>
</svg>
